# xmcd
# 
# Track frame offsets:
#	150
#	18222
#	34897
#	51290
#	67500
#	80212
#	96655
#	109927
#	126760
#	144967
#	159327
#	177177
#
# Disc length: 2711 seconds
#
# Revision: 1
# Processed by: cddbd v1.4PL0 Copyright (c) Steve Scherf et al.
# Submitted via: Audio-CD-Archiv 2.10.441
#
DISCID=9b0a950c
DTITLE=Timmel Truck - Männer der Straße
DYEAR=1900
DGENRE=country
TTITLE0=Gold und Silber
TTITLE1=Moses
TTITLE2=Truck durch Südtirol
TTITLE3=Slow Truck
TTITLE4=Montag Morgen
TTITLE5=Stur auf der Spur
TTITLE6=Heut´ Nacht brauch´ ich ne Frau
TTITLE7=Amerika
TTITLE8=Harte Tage
TTITLE9=Dusty Boots
TTITLE10=König der Autobahn
TTITLE11=Der Anfang, das Ende
EXTD=
EXTT0=
EXTT1=
EXTT2=
EXTT3=
EXTT4=
EXTT5=
EXTT6=
EXTT7=
EXTT8=
EXTT9=
EXTT10=
EXTT11=
PLAYORDER=
